<svg width="37" height="37" viewBox="0 0 37 37" fill="none" xmlns="http://www.w3.org/2000/svg">
<circle cx="18.3382" cy="18.3382" r="14.2576" fill="#161414" stroke="#7D3DDB"/>
<circle cx="18.5" cy="18.5" r="18" stroke="#7D3DDB"/>
<g clip-path="url(#clip0)">
<path d="M22.6283 11.3846H14.388C13.7168 11.3846 13.1276 11.9367 13.1276 12.5902V24.7802C13.1276 24.999 13.1884 25.1813 13.2866 25.3221C13.4039 25.4905 13.5929 25.587 13.7955 25.587C13.987 25.587 14.191 25.5017 14.3793 25.3408L18.066 22.2106C18.1799 22.1133 18.3435 22.0576 18.5135 22.0576C18.6835 22.0576 18.8467 22.1133 18.9609 22.2109L22.6353 25.3403C22.8243 25.5017 23.0142 25.587 23.2054 25.587C23.5288 25.587 23.844 25.3376 23.844 24.7803V12.5902C23.844 11.9367 23.2994 11.3846 22.6283 11.3846Z" fill="#7D3DDB"/>
</g>
<defs>
<clipPath id="clip0">
<rect width="14.2023" height="14.2023" fill="white" transform="translate(11.3846 11.3846)"/>
</clipPath>
</defs>
</svg>
