<svg width="37" height="37" viewBox="0 0 37 37" fill="none" xmlns="http://www.w3.org/2000/svg">
<circle cx="18.3382" cy="18.3383" r="14.2576" fill="#161414" stroke="#7D3DDB"/>
<circle cx="18.5" cy="18.5" r="18" stroke="#7D3DDB"/>
<g clip-path="url(#clip0)">
<path d="M27.6387 17.5995C27.4386 17.2437 26.9717 17.1103 26.5937 17.3326L24.0588 18.8002L23.414 19.1782V22.6913L24.0144 23.0471C24.0366 23.0471 24.0366 23.0693 24.0588 23.0693L26.5492 24.5146C26.6604 24.6036 26.816 24.648 26.9717 24.648C27.3941 24.648 27.7277 24.3145 27.7277 23.892V20.9125L27.7499 17.9775C27.7499 17.844 27.7277 17.7106 27.6387 17.5995Z" fill="#7D3DDB"/>
<path d="M12.83 16.4654C14.809 16.4654 16.4099 14.8645 16.4099 12.8856C16.4099 10.9066 14.809 9.30568 12.83 9.30568C10.8511 9.30568 9.25016 10.9066 9.25016 12.8856C9.22793 14.8645 10.8511 16.4654 12.83 16.4654ZM12.83 11.418C13.6528 11.418 14.2976 12.0851 14.2976 12.8856C14.2976 13.7083 13.6305 14.3531 12.83 14.3531C12.0296 14.3531 11.3625 13.686 11.3625 12.8856C11.3403 12.0629 12.0073 11.418 12.83 11.418Z" fill="#7D3DDB"/>
<path d="M21.9021 16.6656C21.324 16.9546 20.6792 17.1325 19.9899 17.1325C19.145 17.1325 18.3445 16.8879 17.6774 16.4432H15.1426C14.4755 16.8879 13.6751 17.1325 12.8301 17.1325C12.1408 17.1325 11.496 16.9769 10.9179 16.6656C10.4065 16.9546 10.0507 17.5327 10.0507 18.1553V23.5807C10.0507 24.5813 10.8734 25.3818 11.8518 25.3818H20.9905C21.9911 25.3818 22.7916 24.5591 22.7916 23.5807V18.1553C22.7693 17.5327 22.4136 16.9546 21.9021 16.6656Z" fill="#7D3DDB"/>
<path d="M19.9898 16.4654C21.9687 16.4654 23.5697 14.8645 23.5697 12.8856C23.5697 10.9066 21.9687 9.30568 19.9898 9.30568C18.0109 9.30568 16.4099 10.9066 16.4099 12.8856C16.4099 14.8645 18.0109 16.4654 19.9898 16.4654ZM19.9898 11.418C20.8125 11.418 21.4573 12.0851 21.4573 12.8856C21.4573 13.7083 20.7903 14.3531 19.9898 14.3531C19.1893 14.3531 18.5223 13.686 18.5223 12.8856C18.5223 12.0629 19.1671 11.418 19.9898 11.418Z" fill="#7D3DDB"/>
</g>
<defs>
<clipPath id="clip0">
<rect width="18.5" height="18.5" fill="white" transform="translate(9.25 8.09375)"/>
</clipPath>
</defs>
</svg>
